<mxfile host="app.diagrams.net" agent="Mozilla/5.0 (Windows NT 10.0; Win64; x64) AppleWebKit/537.36 (KHTML, like Gecko) Chrome/131.0.0.0 Safari/537.36" version="24.8.6">
  <diagram name="Side-1" id="lBrHSASU1VhTMCB4RCuX">
    <mxGraphModel dx="1816" dy="538" grid="1" gridSize="10" guides="1" tooltips="1" connect="1" arrows="1" fold="1" page="1" pageScale="1" pageWidth="827" pageHeight="1169" math="0" shadow="0">
      <root>
        <mxCell id="0" />
        <mxCell id="1" parent="0" />
        <mxCell id="j4nwcOahAj8lmi35BwPk-4" style="edgeStyle=orthogonalEdgeStyle;rounded=0;orthogonalLoop=1;jettySize=auto;html=1;exitX=1;exitY=0.5;exitDx=0;exitDy=0;entryX=0;entryY=0.5;entryDx=0;entryDy=0;" edge="1" parent="1" source="j4nwcOahAj8lmi35BwPk-2" target="j4nwcOahAj8lmi35BwPk-7">
          <mxGeometry relative="1" as="geometry">
            <mxPoint x="560" y="480" as="targetPoint" />
          </mxGeometry>
        </mxCell>
        <mxCell id="j4nwcOahAj8lmi35BwPk-9" style="edgeStyle=orthogonalEdgeStyle;rounded=0;orthogonalLoop=1;jettySize=auto;html=1;entryX=1;entryY=0.5;entryDx=0;entryDy=0;" edge="1" parent="1" source="j4nwcOahAj8lmi35BwPk-2" target="j4nwcOahAj8lmi35BwPk-8">
          <mxGeometry relative="1" as="geometry">
            <mxPoint x="250" y="480" as="targetPoint" />
          </mxGeometry>
        </mxCell>
        <mxCell id="j4nwcOahAj8lmi35BwPk-2" value="i_ADC_DnB?" style="rhombus;whiteSpace=wrap;html=1;" vertex="1" parent="1">
          <mxGeometry x="340" y="440" width="120" height="80" as="geometry" />
        </mxCell>
        <mxCell id="j4nwcOahAj8lmi35BwPk-6" value="0&lt;br&gt;(busy)" style="text;html=1;align=center;verticalAlign=middle;whiteSpace=wrap;rounded=0;fillColor=default;" vertex="1" parent="1">
          <mxGeometry x="480" y="465" width="40" height="30" as="geometry" />
        </mxCell>
        <mxCell id="j4nwcOahAj8lmi35BwPk-7" value="sig_ADC_ADDR = Currnet write address&lt;br&gt;sig_ADC_DATA = input ADC data&lt;br&gt;sig_ADC_CLK_to_mem_dist = i_ADC_DATA_RDY&lt;br&gt;sig_RnW_to_mem_dist_out = 0 (Write mode)&lt;div&gt;&lt;br&gt;&lt;/div&gt;" style="rounded=0;whiteSpace=wrap;html=1;" vertex="1" parent="1">
          <mxGeometry x="560" y="440" width="300" height="80" as="geometry" />
        </mxCell>
        <mxCell id="j4nwcOahAj8lmi35BwPk-8" value="sig_ADC_ADDR = 0x0000&lt;br&gt;sig_ADC_DATA = 0x0000&lt;br&gt;sig_ADC_CLK_to_mem_dist = 0&lt;br&gt;sig_RnW_to_mem_dist_out = 1 (Read mode)" style="rounded=0;whiteSpace=wrap;html=1;" vertex="1" parent="1">
          <mxGeometry x="-60" y="440" width="300" height="80" as="geometry" />
        </mxCell>
        <mxCell id="j4nwcOahAj8lmi35BwPk-10" value="1&lt;br&gt;(done)" style="text;html=1;align=center;verticalAlign=middle;whiteSpace=wrap;rounded=0;fillColor=default;" vertex="1" parent="1">
          <mxGeometry x="280" y="465" width="40" height="30" as="geometry" />
        </mxCell>
        <mxCell id="j4nwcOahAj8lmi35BwPk-13" style="edgeStyle=orthogonalEdgeStyle;rounded=0;orthogonalLoop=1;jettySize=auto;html=1;" edge="1" parent="1" source="j4nwcOahAj8lmi35BwPk-11" target="j4nwcOahAj8lmi35BwPk-12">
          <mxGeometry relative="1" as="geometry" />
        </mxCell>
        <mxCell id="j4nwcOahAj8lmi35BwPk-15" style="edgeStyle=orthogonalEdgeStyle;rounded=0;orthogonalLoop=1;jettySize=auto;html=1;" edge="1" parent="1" source="j4nwcOahAj8lmi35BwPk-11">
          <mxGeometry relative="1" as="geometry">
            <mxPoint x="560" y="720" as="targetPoint" />
          </mxGeometry>
        </mxCell>
        <mxCell id="j4nwcOahAj8lmi35BwPk-11" value="i_ADC_DnB?" style="rhombus;whiteSpace=wrap;html=1;" vertex="1" parent="1">
          <mxGeometry x="340" y="680" width="120" height="80" as="geometry" />
        </mxCell>
        <mxCell id="j4nwcOahAj8lmi35BwPk-12" value="sig_int_mem_data = i_DATA_MDIST&lt;br&gt;sig_int_mem_ADDR = Current read address&lt;br&gt;sig_CLK_from_int_mem = i_CLK_IXMUX&lt;br&gt;sign_RnW_to_mem_dist_out_nB = 1" style="rounded=0;whiteSpace=wrap;html=1;" vertex="1" parent="1">
          <mxGeometry x="-60" y="680" width="300" height="80" as="geometry" />
        </mxCell>
        <mxCell id="j4nwcOahAj8lmi35BwPk-16" value="&lt;font style=&quot;font-size: 16px;&quot;&gt;DATA_ADDR_sample_mode process&lt;/font&gt;" style="text;html=1;align=center;verticalAlign=middle;whiteSpace=wrap;rounded=0;" vertex="1" parent="1">
          <mxGeometry x="252" y="390" width="296" height="30" as="geometry" />
        </mxCell>
        <mxCell id="j4nwcOahAj8lmi35BwPk-17" value="&lt;font style=&quot;font-size: 16px;&quot;&gt;DATA_ADDR_read_mode process&lt;/font&gt;" style="text;html=1;align=center;verticalAlign=middle;whiteSpace=wrap;rounded=0;" vertex="1" parent="1">
          <mxGeometry x="252" y="630" width="296" height="30" as="geometry" />
        </mxCell>
        <mxCell id="j4nwcOahAj8lmi35BwPk-18" value="0&lt;br&gt;(busy)" style="text;html=1;align=center;verticalAlign=middle;whiteSpace=wrap;rounded=0;fillColor=default;" vertex="1" parent="1">
          <mxGeometry x="480" y="705" width="40" height="30" as="geometry" />
        </mxCell>
        <mxCell id="j4nwcOahAj8lmi35BwPk-19" value="1&lt;br&gt;(done)" style="text;html=1;align=center;verticalAlign=middle;whiteSpace=wrap;rounded=0;fillColor=default;" vertex="1" parent="1">
          <mxGeometry x="280" y="705" width="40" height="30" as="geometry" />
        </mxCell>
        <mxCell id="j4nwcOahAj8lmi35BwPk-20" value="sig_int_mem_data = 0x0000&lt;br&gt;sig_int_mem_ADDR = 0x0000&lt;br&gt;sig_CLK_from_int_mem = 0&lt;br&gt;sign_RnW_to_mem_dist_out_nB = 0" style="rounded=0;whiteSpace=wrap;html=1;" vertex="1" parent="1">
          <mxGeometry x="560" y="680" width="300" height="80" as="geometry" />
        </mxCell>
      </root>
    </mxGraphModel>
  </diagram>
</mxfile>
